<svg xmlns="http://www.w3.org/2000/svg" id="Capa_1" data-name="Capa 1" viewBox="0 0 753.7 274.68"><defs><style>      .cls-1 {        fill: #75c7ca;      }      .cls-1, .cls-2 {        stroke-width: 0px;      }      .cls-2 {        fill: #1d1d1b;      }    </style></defs><path class="cls-1" d="m10.57,253.38v-.08c0-8.62,6.44-15.76,15.41-15.76,5.52,0,8.84,1.96,11.88,4.84l-2.35,2.52c-2.57-2.44-5.44-4.19-9.58-4.19-6.75,0-11.8,5.49-11.8,12.49v.1c0,7.05,5.09,12.58,11.8,12.58,4.18,0,6.92-1.62,9.84-4.4l2.27,2.22c-3.18,3.22-6.66,5.36-12.19,5.36-8.79,0-15.27-6.92-15.27-15.68"></path><polyline class="cls-1" points="52.74 238.06 56.18 238.06 56.18 265.35 73.34 265.35 73.34 268.54 52.74 268.54 52.74 238.06"></polyline><path class="cls-1" d="m88.7,238.06h3.44v30.48h-3.44v-30.48Zm4.7-8.31l3.44,1.57-5.01,4.05h-2.79l4.35-5.61Z"></path><polyline class="cls-1" points="109.76 238.06 112.98 238.06 132.18 262.48 132.18 238.06 135.53 238.06 135.53 268.54 132.79 268.54 113.12 243.55 113.12 268.54 109.76 268.54 109.76 238.06"></polyline><rect class="cls-1" x="153.16" y="238.06" width="3.44" height="30.48"></rect><path class="cls-1" d="m172.87,253.38v-.08c0-8.62,6.44-15.76,15.41-15.76,5.53,0,8.84,1.96,11.89,4.84l-2.35,2.52c-2.56-2.44-5.44-4.19-9.57-4.19-6.75,0-11.8,5.49-11.8,12.49v.1c0,7.05,5.09,12.58,11.8,12.58,4.18,0,6.92-1.62,9.84-4.4l2.27,2.22c-3.18,3.22-6.66,5.36-12.19,5.36-8.79,0-15.28-6.92-15.28-15.68"></path><path class="cls-1" d="m226.32,237.84h3.23l13.88,30.69h-3.7l-3.57-8.06h-16.59l-3.61,8.06h-3.53l13.89-30.69m8.49,19.51l-6.92-15.51-6.96,15.51h13.88Z"></path><path class="cls-1" d="m255.53,264.09l2.13-2.52c3.18,2.87,6.22,4.31,10.44,4.31s6.79-2.18,6.79-5.18v-.1c0-2.83-1.52-4.44-7.92-5.79-7.01-1.52-10.23-3.78-10.23-8.79v-.09c0-4.79,4.22-8.31,10.01-8.31,4.44,0,7.62,1.26,10.71,3.75l-2,2.65c-2.83-2.31-5.66-3.32-8.79-3.32-3.96,0-6.49,2.18-6.49,4.93v.08c0,2.88,1.57,4.49,8.27,5.92,6.79,1.48,9.93,3.96,9.93,8.62v.09c0,5.22-4.35,8.62-10.4,8.62-4.83,0-8.79-1.61-12.45-4.88"></path><polyline class="cls-1" points="313.24 238.06 317.07 238.06 327.91 264.31 338.79 238.06 342.49 238.06 329.39 268.75 326.34 268.75 313.24 238.06"></polyline><polyline class="cls-1" points="357.2 238.06 379.23 238.06 379.23 241.2 360.64 241.2 360.64 251.6 377.27 251.6 377.27 254.74 360.64 254.74 360.64 265.4 379.45 265.4 379.45 268.54 357.2 268.54 357.2 238.06"></polyline><polyline class="cls-1" points="403.12 241.24 392.89 241.24 392.89 238.06 416.83 238.06 416.83 241.24 406.6 241.24 406.6 268.54 403.12 268.54 403.12 241.24"></polyline><polyline class="cls-1" points="431.97 238.06 454 238.06 454 241.2 435.41 241.2 435.41 251.6 452.04 251.6 452.04 254.74 435.41 254.74 435.41 265.4 454.22 265.4 454.22 268.54 431.97 268.54 431.97 238.06"></polyline><path class="cls-1" d="m469.84,238.06h13.11c3.74,0,6.74,1.13,8.66,3.05,1.48,1.48,2.35,3.62,2.35,6.02v.08c0,5.05-3.49,8.01-8.27,8.88l9.36,12.45h-4.23l-8.84-11.85h-8.7v11.85h-3.44v-30.48m12.8,15.55c4.56,0,7.83-2.35,7.83-6.27v-.09c0-3.75-2.87-6-7.79-6h-9.4v12.36h9.36Z"></path><rect class="cls-1" x="510.33" y="238.06" width="3.43" height="30.48"></rect><polyline class="cls-1" points="531.39 238.06 534.61 238.06 553.8 262.48 553.8 238.06 557.16 238.06 557.16 268.54 554.41 268.54 534.73 243.55 534.73 268.54 531.39 268.54 531.39 238.06"></polyline><path class="cls-1" d="m585.75,237.84h3.23l13.88,30.69h-3.7l-3.57-8.06h-16.59l-3.61,8.06h-3.53l13.89-30.69m8.49,19.51l-6.92-15.51-6.97,15.51h13.88Z"></path><path class="cls-1" d="m617.56,238.06h13.11c3.74,0,6.74,1.13,8.66,3.05,1.48,1.48,2.35,3.62,2.35,6.02v.08c0,5.05-3.48,8.01-8.27,8.88l9.36,12.45h-4.22l-8.84-11.85h-8.71v11.85h-3.45v-30.48m12.8,15.55c4.57,0,7.84-2.35,7.84-6.27v-.09c0-3.75-2.87-6-7.79-6h-9.41v12.36h9.36Z"></path><rect class="cls-1" x="658.05" y="238.06" width="3.44" height="30.48"></rect><path class="cls-1" d="m690.38,237.84h3.22l13.89,30.69h-3.7l-3.57-8.06h-16.59l-3.61,8.06h-3.52l13.88-30.69m8.49,19.51l-6.92-15.51-6.96,15.51h13.88Z"></path><path class="cls-1" d="m719.58,264.09l2.13-2.52c3.18,2.87,6.23,4.31,10.44,4.31s6.79-2.18,6.79-5.18v-.1c0-2.83-1.52-4.44-7.92-5.79-7.01-1.52-10.24-3.78-10.24-8.79v-.09c0-4.79,4.23-8.31,10.02-8.31,4.45,0,7.62,1.26,10.71,3.75l-2,2.65c-2.83-2.31-5.66-3.32-8.79-3.32-3.96,0-6.49,2.18-6.49,4.93v.08c0,2.88,1.56,4.49,8.27,5.92,6.79,1.48,9.92,3.96,9.92,8.62v.09c0,5.22-4.35,8.62-10.4,8.62-4.83,0-8.79-1.61-12.45-4.88"></path><path class="cls-2" d="m225.07,5.62c24.45,0,38.48.55,42.09,1.64,9.91,1.18,21.09,5.34,33.52,12.47,6.81,4.2,14.03,10.63,21.68,19.28,13.61,16.89,20.41,36.08,20.41,57.59,0,12.6-2.43,24.49-7.31,35.67-9.58,21.76-25.33,37.47-47.26,47.13-10.16,5.21-25.79,7.81-46.88,7.81h-77.25l-4.04-.76v-34.53h85.19c9.07,0,16.09-.8,21.05-2.4,13.19-4.45,22.85-11.09,28.98-19.91,7.48-11.17,11.22-22.05,11.22-32.64s-3.23-21.17-9.7-31.5c-4.03-5.96-8.49-10.5-13.36-13.61-8.9-7.31-21.63-10.96-38.18-10.96h-85.19V5.62h65.03"></path><path class="cls-2" d="m361.68,5.62h116.69c20.58,0,36.71,6.18,48.39,18.53,5.22,4.88,8.82,9.58,10.84,14.11,4.54,9.07,6.81,17.94,6.81,26.59v5.17c0,13.27-5.76,26.26-17.26,38.94-7.39,7.06-14.12,11.59-20.17,13.61,15.29,16.3,22.94,37.85,22.94,64.65h-36.67v-2.77c0-19.83-8.02-35.58-24.07-47.26-9.16-6.47-21.13-9.7-35.92-9.7h-71.58v-35.03h118.96c13.03,0,21.85-6.43,26.46-19.28.51-2.6.84-4.79,1.02-6.55,0-7.14-2.99-13.61-8.95-19.41-5.12-4.03-10.58-6.05-16.38-6.05,0-.33-1.77-.5-5.29-.5h-115.81V5.62"></path><path class="cls-1" d="m563.31,5.75h36.55v85.82c0,24.03,9.19,41.5,27.59,52.42,8.07,5.3,18.78,7.94,32.14,7.94h86.45v35.29h-85.19c-23.02,0-41.46-4.83-55.32-14.49-3.87-1.93-9.66-6.64-17.39-14.11-10-11.26-16.76-22.6-20.29-34.03-3.03-8.65-4.54-21.05-4.54-37.18V5.75"></path><path class="cls-1" d="m134.3,185.44H60.79v-53.14H7.66V58.79h53.13V5.66h73.51v53.13h53.13v73.51h-53.13v53.14m-49.55-23.96h25.59v-53.14h53.14v-25.59h-53.14V29.62h-25.59v53.13H31.62v25.59h53.13v53.14Z"></path></svg>
